<?xml version="1.0" encoding="UTF-8" standalone="no"?>
<svg
   xmlns:dc="http://purl.org/dc/elements/1.1/"
   xmlns:cc="http://creativecommons.org/ns#"
   xmlns:rdf="http://www.w3.org/1999/02/22-rdf-syntax-ns#"
   xmlns:svg="http://www.w3.org/2000/svg"
   xmlns="http://www.w3.org/2000/svg"
   xmlns:sodipodi="http://sodipodi.sourceforge.net/DTD/sodipodi-0.dtd"
   xmlns:inkscape="http://www.inkscape.org/namespaces/inkscape"
   id="svg3077"
   height="100%"
   width="100%"
   version="1.1"
   viewBox="0 0 225 57"
   inkscape:version="0.92.2 (5c3e80d, 2017-08-06)"
   sodipodi:docname="renesas-cloud-logo-text.svg">
  <defs
     id="defs16" />
  <sodipodi:namedview
     pagecolor="#ffffff"
     bordercolor="#666666"
     borderopacity="1"
     objecttolerance="10"
     gridtolerance="10"
     guidetolerance="10"
     inkscape:pageopacity="0"
     inkscape:pageshadow="2"
     inkscape:window-width="1920"
     inkscape:window-height="1001"
     id="namedview14"
     showgrid="false"
     inkscape:zoom="4.7822222"
     inkscape:cx="81.305756"
     inkscape:cy="54.033116"
     inkscape:window-x="-9"
     inkscape:window-y="-9"
     inkscape:window-maximized="1"
     inkscape:current-layer="svg3077" />
  <metadata
     id="metadata3093">
    <rdf:RDF>
      <cc:Work
         rdf:about="">
        <dc:format>image/svg+xml</dc:format>
        <dc:type
           rdf:resource="http://purl.org/dc/dcmitype/StillImage" />
        <dc:title />
      </cc:Work>
    </rdf:RDF>
  </metadata>
  <path
     inkscape:connector-curvature="0"
     d="M 70.224285,7.6256931 V 29.971863 h 4.514393 V 13.12597 c 0.200357,0 0.294172,0.06837 0.46273,0.254421 l 11.984845,14.072696 c 1.877952,2.275484 3.220024,2.518776 6.417785,2.518776 h 4.830838 V 7.6256931 l -4.50168,-0.0064 V 24.353876 c -0.19241,0 -0.294173,-0.0636 -0.445236,-0.252829 L 81.841809,10.460906 C 80.024285,8.3619271 78.973206,7.6256961 74.272767,7.6256961 Z"
     id="path6745"
     style="fill:#ffffff;fill-opacity:1;fill-rule:nonzero;stroke:none;stroke-width:1.27210808" />
  <path
     inkscape:connector-curvature="0"
     d="m 52.007541,10.805962 11.359929,0.01908 c 0.561316,0 0.955669,-0.184456 1.225994,-0.69012 L 65.938716,7.6256881 H 49.668453 c -7.204901,0 -10.719104,2.6157719 -10.719104,7.9872479 v 6.177676 c 0,5.751521 3.609609,8.181247 10.727056,8.181247 h 14.118806 c 0.527928,0 0.925463,-0.139933 1.197374,-0.667857 l 1.310273,-2.539446 H 51.99323 c -3.749539,0 -5.099565,-1.237126 -5.099565,-3.787703 v -3.002174 h 14.855043 c 0.558137,0 0.94772,-0.168554 1.225999,-0.680578 l 1.338894,-2.536266 H 46.893665 V 14.93713 c 0,-2.168944 0.507253,-4.131172 5.113876,-4.131172"
     id="path6749"
     style="fill:#ffffff;fill-opacity:1;fill-rule:nonzero;stroke:none;stroke-width:1.27210808" />
  <path
     inkscape:connector-curvature="0"
     d="m 116.54478,10.805962 11.35039,0.01908 c 0.56768,0 0.97634,-0.184456 1.25462,-0.69012 l 1.31981,-2.5092319 h -16.26391 c -7.19695,0 -10.73977,2.6157719 -10.73977,7.9872479 v 6.177676 c 0,5.751521 3.63664,8.181247 10.7668,8.181247 H 128.342 c 0.52951,0 0.94136,-0.139933 1.21486,-0.667857 l 1.31981,-2.539446 h -14.33189 c -3.77816,0 -5.09957,-1.237126 -5.09957,-3.787703 v -3.002174 h 14.84074 c 0.55019,0 0.94772,-0.168554 1.2085,-0.680578 l 1.34844,-2.536266 h -17.39768 v -1.820705 c 0,-2.168944 0.46432,-4.131172 5.09957,-4.131172"
     id="path6753"
     style="fill:#ffffff;fill-opacity:1;fill-rule:nonzero;stroke:none;stroke-width:1.27210808" />
  <path
     inkscape:connector-curvature="0"
     d="m 149.14717,22.402666 c 3.08168,1.009737 3.98964,1.443843 3.98964,2.623723 0,1.009737 -0.57403,1.755509 -4.44442,1.755509 l -13.1234,-0.01749 c -0.56608,0 -0.97793,0.168555 -1.2546,0.688529 l -1.32777,2.518776 h 18.6507 c 7.52293,0 10.3486,-2.369303 10.3486,-5.613179 0,-1.893851 -1.08448,-4.384002 -8.13991,-6.71355 l -7.44819,-2.429732 c -3.06737,-1.014507 -3.96421,-1.459745 -3.96421,-2.614183 0,-0.950901 0.5152,-1.795262 4.42535,-1.795262 l 11.10391,0.01908 c 0.55815,0 0.94295,-0.182865 1.21645,-0.690117 l 1.35321,-2.5060549 h -16.6344 c -7.49908,0 -10.31839,2.3454498 -10.31839,5.6084079 0,1.898622 1.05584,4.415805 8.1574,6.737402 z"
     id="path6757"
     style="fill:#ffffff;fill-opacity:1;fill-rule:nonzero;stroke:none;stroke-width:1.27210808" />
  <path
     inkscape:connector-curvature="0"
     d="m 216.35677,17.638456 -7.44978,-2.428136 c -3.03716,-1.009737 -3.97852,-1.458155 -3.97852,-2.612593 0,-0.93818 0.60266,-1.792082 4.41899,-1.792082 l 11.10073,0.01908 c 0.55019,0 0.93977,-0.182866 1.22759,-0.691709 l 1.34207,-2.5076429 h -16.57398 c -7.56586,0 -10.32793,2.3422688 -10.32793,5.6115879 0,1.89862 1.06698,4.414215 8.08743,6.737402 l 7.44819,2.428136 c 3.06419,1.009737 4.01033,1.450204 4.01033,2.620544 0,0.925459 -0.61062,1.758691 -4.48418,1.758691 L 196.08732,26.759464 184.38551,7.6253661 h -4.46827 c -3.46492,0 -5.19816,0.965212 -6.81533,3.5905259 l -11.47759,18.755649 h 7.76146 l 9.45015,-16.71709 c 0.23376,-0.407074 0.42139,-0.389582 0.60585,-0.389582 l 7.89502,13.894602 h -8.574 c -0.56132,0 -0.94613,0.168554 -1.20216,0.693299 l -1.33252,2.518774 h 21.77054 0.0223 16.11761 c 7.51975,0 10.33112,-2.374071 10.33112,-5.617949 0,-1.88908 -1.07653,-4.382412 -8.11288,-6.715141"
     id="path6761"
     style="fill:#ffffff;fill-opacity:1;fill-rule:nonzero;stroke:none;stroke-width:1.27210808" />
  <path
     inkscape:connector-curvature="0"
     d="M 2.5403429,28.90838 H 12.968447 V 18.459601 H 2.5403429 Z"
     id="path6763"
     style="fill:#ffffff;fill-opacity:1;fill-rule:nonzero;stroke:none;stroke-width:1.27210808" />
  <path
     inkscape:connector-curvature="0"
     d="m 2.213408,5.3646851 c -0.3816313,0.193998 -0.9747522,0.632874 -1.0733413,1.143308 0,0 -0.18445323,1.084472 -0.18445323,1.111504 -0.063605,0.394354 0.31802683,0.300536 0.47704213,0.201947 1.6298886,-0.960441 3.4410512,-1.831835 5.0979702,-2.339088 7.7996172,-2.356582 17.6997992,-2.418597 19.4266832,2.677787 1.218046,3.5332799 -3.735224,6.4798009 -6.527507,7.7948429 -1.07811,0.505663 -1.439072,0.987474 -1.512214,1.501087 -0.06043,0.46273 0.09859,1.141718 0.720331,2.060816 3.916503,5.873961 15.557885,14.293725 26.979825,17.240246 0.475446,0.12721 0.709199,0.08428 0.903194,-0.03181 0.106539,-0.06043 0.240111,-0.1447 0.03498,-0.24806 -7.586533,-3.986468 -14.832781,-10.671398 -18.4567,-15.834568 -0.828462,-1.192601 -1.041542,-1.989259 -0.987472,-2.631673 0.05249,-0.554957 0.5645,-1.039948 1.65533,-1.550382 4.05166,-1.877949 8.182837,-4.738602 6.94889,-9.4962869 C 33.917528,0.12200455 14.552855,-0.88137035 2.2134041,5.3646811"
     id="path6767"
     style="fill:#ffffff;fill-opacity:1;fill-rule:nonzero;stroke:none;stroke-width:1.27210808" />
  <text
     xml:space="preserve"
     style="font-style:normal;font-variant:normal;font-weight:normal;font-stretch:normal;font-size:30.01200104px;line-height:1.25;font-family:sans-serif;-inkscape-font-specification:'sans-serif, Normal';font-variant-ligatures:normal;font-variant-caps:normal;font-variant-numeric:normal;font-feature-settings:normal;text-align:start;letter-spacing:0px;word-spacing:0px;writing-mode:lr-tb;text-anchor:start;fill:#ffffff;fill-opacity:1;stroke:none;stroke-width:0.75031292;"
     x="70.030113"
     y="55.042171"
     id="text49"><tspan
       sodipodi:role="line"
       id="tspan47"
       x="70.030113"
       y="55.042171"
       style="font-style:normal;font-variant:normal;font-weight:normal;font-stretch:normal;font-size:30.01200104px;font-family:sans-serif;-inkscape-font-specification:'sans-serif, Normal';font-variant-ligatures:normal;font-variant-caps:normal;font-variant-numeric:normal;font-feature-settings:normal;text-align:start;writing-mode:lr-tb;text-anchor:start;stroke-width:0.75031292;fill:#ffffff;">Cloud</tspan></text>
</svg>
